<?xml version="1.0" encoding="UTF-8"?><svg xmlns="http://www.w3.org/2000/svg" viewBox="0 0 799.92 799.92" width="100%" height="100%"><title>illustration pc</title><rect width="799.92" height="799.92" fill="#2686ff" data-color-group="7"/><path d="M166.91,86.59a86.58,86.58,0,1,1-19.35.54v-11a6.79,6.79,0,0,1,6.77-6.77h5.8a6.79,6.79,0,0,1,6.77,6.77V86.59Z" style="fill-rule:evenodd" fill="#0663d8" data-color-group="4"/><rect x="101.51" y="307.26" width="295.42" height="417.81" transform="translate(-197.95 157.59) rotate(-25.5)" fill="#0663d8" data-color-group="4"/><path d="M625.22,613.24C618,612,590,598.12,569.4,592.21s-52.23-9.57-57.95-8.92c-6.83.77-7.12,1.26-8.39,6.09s-1.3,9.18,2.24,11.2c4.52,2.59,3.7,8.5,3.28,25.24a74.54,74.54,0,0,0-6.36,18.76c-1.76,8.78,5.82,14.14,10.79,6.32,4.76,8.18,14.14,15.06,32,20,31.35,8.78,46.12-9.58,50.89-15.49,8.5-10.54,9.87-27.16,25.94-23.94s11.28,18.85,15.07,31.85c2.12,7.29,8.34,30.16,40.66,34.13,18.42,2.26,29.74-.49,37.28-6.24,1.54,9.2,10.63,7.17,12.39-1.62a74.39,74.39,0,0,0,1.34-19.92c6-15.51,7.54-21.25,12.7-21.89,4-.5,5.69-4.54,6.38-9.47s0.61-5.5-5.4-8.85c-5-2.8-35.61-11.61-56.91-14.09C666.25,613.21,642.18,616.25,625.22,613.24Z" style="fill-rule:evenodd" fill="#0663d8" data-color-group="4"/><path d="M501.18,577.35c40.43,7.2,179.82,47.27,200.56,56.59s17.8,36.57,15.61,47.49-15.68,11.4-12-7.08,4.1-28.81-8.56-32.52-184.69-48-196.7-50.79S493.23,575.24,501.18,577.35Z" style="fill-rule:evenodd" fill="#1e1e1e" data-color-group="0"/><path d="M732,623.57c-40.08-8.92-184.16-25.62-206.89-25s-30.51,26.89-32.7,37.81,10.08,16.56,13.78-1.91,7.31-28.16,20.42-26.72,188.95,26.8,201.09,28.88S740.11,624.69,732,623.57Z" style="fill-rule:evenodd" fill="#1e1e1e" data-color-group="0"/><path d="M674,689.88c28,1.82,37.3-9.65,43.38-25,7.15-18.06,8.51-24.58,14-25.27,4-.51,5.69-4.54,6.38-9.48s0.61-5.5-5.4-8.85c-5-2.8-35.61-11.61-56.92-14.09l-1.46-.16v5.13c18.08,2.18,36,7.8,40.52,11.81,9.39,8.42,1.28,38.18-10,51.46-6.27,7.37-18.43,10.16-30.51,9.59v4.84ZM615.38,605c-7.21-1.28-35.23-15.12-55.82-21-3.27-.94-6.81-1.82-10.48-2.63v5.34c18.36,3.91,38.36,11.47,43.44,22.12,7.58,15.85-15.81,46.12-33.1,50.42a36.79,36.79,0,0,1-10.35.88V665C571,665.89,582,652.2,586,647.24c8.5-10.55,9.86-27.16,25.94-23.94s11.28,18.85,15.07,31.85c2.12,7.29,8.34,30.16,40.66,34.13q3.31,0.41,6.31.6V685c-10.5-.5-20.94-3.54-27.39-8.34-14.3-10.63-24.22-47.56-11.13-59.28,7.22-6.46,22.91-7.12,38.51-5.24v-5.13C655.19,605.15,631.91,608,615.38,605Zm-66.3-23.67c-19.5-4.33-42.66-6.83-47.47-6.28-6.83.77-7.12,1.26-8.39,6.09s-1.3,9.18,2.24,11.2c4.82,2.76,3.56,9.3,3.21,28.72-0.32,17.69,4.51,32.7,36.46,41.65a60.46,60.46,0,0,0,14,2.29v-4.92c-16.79-.73-38.1-10.24-42.6-24.32-5.31-16.6-1.32-47.19,10.58-51.34,4.61-1.61,17.83-.77,32,2.25v-5.34Z" style="fill-rule:evenodd" fill="#1e1e1e" data-color-group="0"/><path d="M517.06,584.45c10.58-3.69,66.45,5.51,75.46,24.37,7.58,15.85-15.81,46.12-33.1,50.42-16.78,4.18-47.44-6.22-52.95-23.45-5.31-16.6-1.32-47.19,10.58-51.34h0ZM714.51,624c-8.35-7.48-63.44-20.51-79-6.57-13.1,11.71-3.17,48.65,11.13,59.28,13.87,10.31,46.17,12.53,57.9-1.25C715.8,662.18,723.9,632.41,714.51,624Z" style="fill-rule:evenodd" fill="#2686ff" data-color-group="7"/><path d="M149.82,251.28a86.6,86.6,0,1,0-86.6-86.6A86.76,86.76,0,0,0,149.82,251.28Z" style="fill-rule:evenodd" fill="#fff" data-color-group="6"/><rect x="137.72" y="61.15" width="19.35" height="56.12" rx="6.77" ry="6.77" fill="#fff" data-color-group="6"/><path d="M149.82,232.89A68.21,68.21,0,1,0,81.6,164.68,68.34,68.34,0,0,0,149.82,232.89Z" style="fill-rule:evenodd" fill="#fff" data-color-group="6"/><path d="M149.82,226.12a61.44,61.44,0,1,0-61.44-61.44A61.56,61.56,0,0,0,149.82,226.12Z" style="fill-rule:evenodd" fill="#d5dae0" data-color-group="5"/><path d="M149.82,216.93a52.25,52.25,0,1,0-52.25-52.25A52.35,52.35,0,0,0,149.82,216.93Z" style="fill-rule:evenodd" fill="#694f28" data-color-group="8"/><path d="M603.78,368.46L650.19,392a18,18,0,0,1,7.87,24.13L594.66,541a18,18,0,0,1-24.13,7.87l-46.41-23.58a18,18,0,0,1-7.87-24.13l63.41-124.84A18,18,0,0,1,603.78,368.46Z" style="fill-rule:evenodd" fill="#0663d8" data-color-group="4"/><path d="M593.94,360.25l46.41,23.58A18,18,0,0,1,648.23,408L584.82,532.8a18,18,0,0,1-24.13,7.88L514.27,517.1A18,18,0,0,1,506.39,493L569.8,368.13A18,18,0,0,1,593.94,360.25Z" style="fill-rule:evenodd" fill="#fff" data-color-group="6"/><rect x="512.16" y="410.21" width="133.11" height="75.14" transform="translate(-82.6 760.96) rotate(-63.07)" fill="#1e1e1e" data-color-group="0"/><path d="M597.71,373.07l30.13,15.31a1.67,1.67,0,0,0,2.25-.73h0a1.67,1.67,0,0,0-.73-2.24l-30.14-15.31a1.67,1.67,0,0,0-2.24.73h0A1.67,1.67,0,0,0,597.71,373.07Z" style="fill-rule:evenodd" fill="#d5dae0" data-color-group="5"/><path d="M516.39,507.61l50.77,25.79a2.59,2.59,0,0,0,3.48-1.13h0a2.59,2.59,0,0,0-1.13-3.48L518.73,503a2.6,2.6,0,0,0-3.48,1.13h0A2.59,2.59,0,0,0,516.39,507.61Z" style="fill-rule:evenodd" fill="#d5dae0" data-color-group="5"/><circle cx="542.91" cy="518.18" r="10.13" transform="translate(-164.96 767.56) rotate(-63.07)" fill="#fff" data-color-group="6"/><circle cx="542.91" cy="518.18" r="7.14" transform="translate(-164.96 767.54) rotate(-63.07)" fill="#d5dae0" data-color-group="5"/><rect x="91.6" y="299" width="295.42" height="417.81" transform="translate(-195.36 152.52) rotate(-25.5)" fill="#fff" data-color-group="6"/><rect x="98.51" y="359.39" width="143.42" height="7.35" transform="translate(-139.73 108.66) rotate(-25.5)" fill="#d5dae0" data-color-group="5"/><rect x="57.54" y="375.99" width="241.2" height="7.35" transform="translate(-146.11 113.69) rotate(-25.5)" fill="#d5dae0" data-color-group="5"/><rect x="63.08" y="387.6" width="241.2" height="7.35" transform="translate(-150.57 117.2) rotate(-25.5)" fill="#d5dae0" data-color-group="5"/><rect x="68.62" y="399.22" width="241.2" height="7.36" transform="translate(-155.03 120.72) rotate(-25.5)" fill="#d5dae0" data-color-group="5"/><rect x="74.16" y="410.84" width="241.2" height="7.36" transform="translate(-159.49 124.24) rotate(-25.5)" fill="#d5dae0" data-color-group="5"/><rect x="79.7" y="422.45" width="241.2" height="7.36" transform="translate(-163.95 127.76) rotate(-25.5)" fill="#d5dae0" data-color-group="5"/><rect x="85.24" y="434.07" width="241.2" height="7.35" transform="translate(-168.42 131.28) rotate(-25.5)" fill="#d5dae0" data-color-group="5"/><rect x="90.79" y="445.69" width="241.2" height="7.35" transform="translate(-172.88 134.79) rotate(-25.5)" fill="#d5dae0" data-color-group="5"/><rect x="96.33" y="457.31" width="241.2" height="7.36" transform="translate(-177.34 138.31) rotate(-25.5)" fill="#d5dae0" data-color-group="5"/><rect x="107.74" y="494.88" width="120.6" height="7.36" transform="translate(-198.28 120.93) rotate(-25.5)" fill="#d5dae0" data-color-group="5"/><circle cx="332.15" cy="495.07" r="31.28" transform="translate(-180.79 191.24) rotate(-25.5)" fill="#2686ff" data-color-group="7"/><path d="M327.86,526.05a31.43,31.43,0,0,1-14.71-6.13l19-24.85Z" style="fill-rule:evenodd" fill="#0663d8" data-color-group="4"/><path d="M313.14,519.92a31.3,31.3,0,0,1-9-38.78l28,13.93Z" style="fill-rule:evenodd" fill="#f0b16c" data-color-group="1"/><path d="M304.14,481.14a31.14,31.14,0,0,1,14.54-14.3l13.47,28.23Z" style="fill-rule:evenodd" fill="#c62229" data-color-group="3"/><path d="M318.68,466.84l13.47,28.23,10.67-29.4A31.18,31.18,0,0,0,318.68,466.84Z" style="fill-rule:evenodd" fill="#ffd800" data-color-group="2"/><rect x="152.24" y="587.4" width="143.52" height="3.67" transform="translate(-231.87 153.85) rotate(-25.5)" fill="#d5dae0" data-color-group="5"/><rect x="140.65" y="539.87" width="25.51" height="76.86" transform="translate(-234.04 122.4) rotate(-25.5)" fill="#2686ff" data-color-group="7"/><rect x="173.51" y="554.74" width="25.51" height="47.88" transform="translate(-231 136.58) rotate(-25.5)" fill="#2686ff" data-color-group="7"/><rect x="203.63" y="557.46" width="25.51" height="31.66" transform="translate(-225.75 149.02) rotate(-25.5)" fill="#c62229" data-color-group="3"/><rect x="227.06" y="530.63" width="25.51" height="46.51" transform="translate(-215.11 157.22) rotate(-25.5)" fill="#2686ff" data-color-group="7"/><rect x="256.54" y="530.54" width="25.51" height="33.26" transform="translate(-209.34 169.26) rotate(-25.5)" fill="#2686ff" data-color-group="7"/><rect x="321.63" y="537.76" width="12.88" height="3.67" transform="matrix(0.9, -0.43, 0.43, 0.9, -200.36, 193.84)" fill="#d5dae0" data-color-group="5"/><rect x="337.4" y="524.18" width="38.25" height="3.67" transform="translate(-191.74 204.75) rotate(-25.5)" fill="#d5dae0" data-color-group="5"/><rect x="161.21" y="608.09" width="110.69" height="7.35" transform="translate(-242.3 152.84) rotate(-25.5)" fill="#d5dae0" data-color-group="5"/><rect x="166.75" y="619.71" width="110.69" height="7.36" transform="translate(-246.76 156.36) rotate(-25.5)" fill="#d5dae0" data-color-group="5"/><rect x="172.3" y="631.33" width="110.69" height="7.36" transform="translate(-251.22 159.88) rotate(-25.5)" fill="#d5dae0" data-color-group="5"/><rect x="177.84" y="642.94" width="110.69" height="7.36" transform="translate(-255.68 163.4) rotate(-25.5)" fill="#d5dae0" data-color-group="5"/><rect x="183.38" y="654.56" width="110.69" height="7.35" transform="translate(-260.14 166.92) rotate(-25.5)" fill="#d5dae0" data-color-group="5"/><rect x="188.92" y="666.18" width="110.69" height="7.35" transform="translate(-264.6 170.43) rotate(-25.5)" fill="#d5dae0" data-color-group="5"/><rect x="194.46" y="677.8" width="110.69" height="7.36" transform="translate(-269.07 173.95) rotate(-25.5)" fill="#d5dae0" data-color-group="5"/><rect x="202.7" y="701.33" width="55.35" height="7.35" transform="translate(-281.09 167.87) rotate(-25.5)" fill="#d5dae0" data-color-group="5"/><rect x="279" y="551.91" width="110.69" height="7.36" transform="translate(-206.63 198.08) rotate(-25.5)" fill="#d5dae0" data-color-group="5"/><rect x="284.54" y="563.52" width="110.69" height="7.36" transform="translate(-211.09 201.6) rotate(-25.5)" fill="#d5dae0" data-color-group="5"/><rect x="290.08" y="575.14" width="110.69" height="7.36" transform="translate(-215.55 205.12) rotate(-25.5)" fill="#d5dae0" data-color-group="5"/><rect x="295.63" y="586.76" width="110.69" height="7.35" transform="translate(-220.01 208.64) rotate(-25.5)" fill="#d5dae0" data-color-group="5"/><rect x="301.17" y="598.37" width="110.69" height="7.35" transform="translate(-224.47 212.15) rotate(-25.5)" fill="#d5dae0" data-color-group="5"/><rect x="306.71" y="609.99" width="110.69" height="7.36" transform="translate(-228.94 215.67) rotate(-25.5)" fill="#d5dae0" data-color-group="5"/><rect x="312.25" y="621.61" width="110.69" height="7.36" transform="translate(-233.4 219.19) rotate(-25.5)" fill="#d5dae0" data-color-group="5"/><rect x="319.39" y="640.28" width="77.91" height="7.35" transform="translate(-242.34 217.03) rotate(-25.5)" fill="#d5dae0" data-color-group="5"/><path d="M799.92,397.22L285.77,207.51a13,13,0,0,1-7.69-16.68L348.5,0H799.92V397.22Z" fill="#0663d8" data-color-group="4"/><path d="M799.92,388.48L279.38,196.4a13,13,0,0,1-7.69-16.68L338,0H799.92V388.48Z" style="fill-rule:evenodd" fill="#fff" data-color-group="6"/><path d="M799.92,85.71a4.85,4.85,0,0,1-.33-4.06l0.33-.89v4.94Z" style="fill-rule:evenodd" fill="#d5dae0" data-color-group="5"/><path d="M786.44,121l13.48,5v29L777,146.48a4.87,4.87,0,0,1-2.88-6.24l6-16.39A4.87,4.87,0,0,1,786.44,121Z" style="fill-rule:evenodd" fill="#d5dae0" data-color-group="5"/><path d="M799.92,188.91l-3.33-1.23a4.55,4.55,0,0,1-2.69-5.83l6-16.32v23.38Z" style="fill-rule:evenodd" fill="#d5dae0" data-color-group="5"/><path d="M795,192.09l5,1.83v29l-14.37-5.3a4.55,4.55,0,0,1-2.69-5.83l6.27-17A4.55,4.55,0,0,1,795,192.09Z" style="fill-rule:evenodd" fill="#d5dae0" data-color-group="5"/><path d="M791.65,27.74l8.27,3V52.85a3.69,3.69,0,0,1-.87-0.21l-14.6-5.39a3.73,3.73,0,0,1-2.2-4.77l4.63-12.54A3.73,3.73,0,0,1,791.65,27.74Z" style="fill-rule:evenodd" fill="#d5dae0" data-color-group="5"/><path d="M763.67,17.42l14.6,5.39a3.73,3.73,0,0,1,2.2,4.77l-4.63,12.54a3.73,3.73,0,0,1-4.77,2.2l-14.6-5.39a3.73,3.73,0,0,1-2.2-4.77l4.63-12.54A3.73,3.73,0,0,1,763.67,17.42Z" style="fill-rule:evenodd" fill="#d5dae0" data-color-group="5"/><path d="M735.69,7.1l14.6,5.39a3.73,3.73,0,0,1,2.2,4.77l-4.63,12.54a3.73,3.73,0,0,1-4.77,2.2l-14.6-5.39a3.73,3.73,0,0,1-2.2-4.77l4.63-12.54A3.73,3.73,0,0,1,735.69,7.1Z" style="fill-rule:evenodd" fill="#d5dae0" data-color-group="5"/><path d="M716.47,0l5.84,2.16a3.73,3.73,0,0,1,2.2,4.77l-4.63,12.54a3.73,3.73,0,0,1-4.77,2.2l-14.6-5.39a3.73,3.73,0,0,1-2.2-4.77L702.56,0h13.91Z" style="fill-rule:evenodd" fill="#d5dae0" data-color-group="5"/><path d="M695.28,0L691.9,9.14a3.73,3.73,0,0,1-4.77,2.2L672.53,6a3.73,3.73,0,0,1-2.2-4.77L670.77,0h24.5Z" style="fill-rule:evenodd" fill="#d5dae0" data-color-group="5"/><path d="M663.21,0a3.73,3.73,0,0,1-4.06,1l-2.76-1h6.83Z" style="fill-rule:evenodd" fill="#d5dae0" data-color-group="5"/><path d="M781.69,51.25l15,5.55a4.47,4.47,0,0,1,2.64,5.72L793,79.66a4.47,4.47,0,0,1-5.72,2.64l-15-5.55A4.47,4.47,0,0,1,769.64,71L776,53.88A4.47,4.47,0,0,1,781.69,51.25Z" style="fill-rule:evenodd" fill="#d5dae0" data-color-group="5"/><path d="M751.33,40l15,5.55A4.47,4.47,0,0,1,769,51.32l-6.33,17.14A4.47,4.47,0,0,1,757,71.1l-15-5.55a4.47,4.47,0,0,1-2.64-5.72l6.33-17.14A4.47,4.47,0,0,1,751.33,40Z" style="fill-rule:evenodd" fill="#d5dae0" data-color-group="5"/><path d="M721,28.84l15,5.55a4.47,4.47,0,0,1,2.64,5.72l-6.33,17.14a4.47,4.47,0,0,1-5.72,2.64l-15-5.55a4.47,4.47,0,0,1-2.64-5.72l6.33-17.14A4.47,4.47,0,0,1,721,28.84Z" style="fill-rule:evenodd" fill="#d5dae0" data-color-group="5"/><path d="M690.62,17.64l15,5.55a4.47,4.47,0,0,1,2.64,5.72L702,46.06a4.47,4.47,0,0,1-5.72,2.64l-15-5.55a4.47,4.47,0,0,1-2.64-5.72l6.33-17.14A4.47,4.47,0,0,1,690.62,17.64Z" style="fill-rule:evenodd" fill="#d5dae0" data-color-group="5"/><path d="M660.26,6.44l15,5.55a4.47,4.47,0,0,1,2.64,5.72l-6.33,17.14a4.47,4.47,0,0,1-5.72,2.64l-15-5.55a4.47,4.47,0,0,1-2.64-5.72l6.33-17.14A4.47,4.47,0,0,1,660.26,6.44Z" style="fill-rule:evenodd" fill="#d5dae0" data-color-group="5"/><path d="M642.8,0l2.14,0.79a4.47,4.47,0,0,1,2.64,5.72l-6.33,17.14a4.47,4.47,0,0,1-5.72,2.64l-15-5.55A4.47,4.47,0,0,1,617.85,15l5.54-15H642.8Z" style="fill-rule:evenodd" fill="#d5dae0" data-color-group="5"/><path d="M615.49,0L610.9,12.45a4.47,4.47,0,0,1-5.72,2.64l-15-5.55a4.47,4.47,0,0,1-2.64-5.72L588.9,0h26.59Z" style="fill-rule:evenodd" fill="#d5dae0" data-color-group="5"/><path d="M581,0l-0.46,1.25a4.47,4.47,0,0,1-5.72,2.64L564.28,0H581Z" style="fill-rule:evenodd" fill="#d5dae0" data-color-group="5"/><path d="M433.69,0l-4.75,12.86a4.87,4.87,0,0,1-6.24,2.87L385.21,1.9A4.83,4.83,0,0,1,382.83,0h50.86Z" style="fill-rule:evenodd" fill="#d5dae0" data-color-group="5"/><path d="M383.59,6.31l53.75,19.83a4.87,4.87,0,0,1,2.87,6.24l-6,16.39a4.87,4.87,0,0,1-6.24,2.87L374.17,31.82a4.87,4.87,0,0,1-2.87-6.24l6-16.39A4.87,4.87,0,0,1,383.59,6.31Z" style="fill-rule:evenodd" fill="#d5dae0" data-color-group="5"/><rect x="365.41" y="36.34" width="27.18" height="33.5" rx="4.86" ry="4.86" transform="translate(197.99 390.28) rotate(-69.75)" fill="#d5dae0" data-color-group="5"/><path d="M494.84,0l-1.06,2.89a4.79,4.79,0,0,1-6.13,2.83L472.17,0h22.67Z" style="fill-rule:evenodd" fill="#d5dae0" data-color-group="5"/><path d="M530,0L524.7,14.3a4.79,4.79,0,0,1-6.13,2.83l-16.11-5.94A4.79,4.79,0,0,1,499.64,5l1.86-5H530Z" style="fill-rule:evenodd" fill="#d5dae0" data-color-group="5"/><path d="M550.7,0l8.21,3a4.79,4.79,0,0,1,2.83,6.13l-6.11,16.55a4.79,4.79,0,0,1-6.13,2.83l-16.11-5.94a4.79,4.79,0,0,1-2.83-6.13L536.64,0H550.7Z" style="fill-rule:evenodd" fill="#d5dae0" data-color-group="5"/><path d="M573.73,8.5l16.11,5.94a4.79,4.79,0,0,1,2.83,6.13l-6.11,16.55a4.79,4.79,0,0,1-6.13,2.83L564.32,34a4.79,4.79,0,0,1-2.83-6.13l6.11-16.55A4.79,4.79,0,0,1,573.73,8.5Z" style="fill-rule:evenodd" fill="#d5dae0" data-color-group="5"/><rect x="594.41" y="22.28" width="27.18" height="26.71" rx="4.77" ry="4.77" transform="translate(364.11 593.72) rotate(-69.75)" fill="#d5dae0" data-color-group="5"/><path d="M635.59,31.32l16.11,5.94a4.79,4.79,0,0,1,2.83,6.13l-6.11,16.55a4.79,4.79,0,0,1-6.13,2.83l-16.11-5.94a4.79,4.79,0,0,1-2.83-6.13l6.11-16.55A4.79,4.79,0,0,1,635.59,31.32Z" style="fill-rule:evenodd" fill="#d5dae0" data-color-group="5"/><rect x="656.27" y="45.1" width="27.18" height="26.71" rx="4.77" ry="4.77" transform="translate(383.13 666.67) rotate(-69.75)" fill="#d5dae0" data-color-group="5"/><path d="M697.44,54.15l16.11,5.94a4.79,4.79,0,0,1,2.82,6.13l-6.11,16.55a4.79,4.79,0,0,1-6.13,2.83L688,79.65a4.79,4.79,0,0,1-2.83-6.13L691.31,57A4.79,4.79,0,0,1,697.44,54.15Z" style="fill-rule:evenodd" fill="#d5dae0" data-color-group="5"/><path d="M728.37,65.56l16.11,5.94a4.79,4.79,0,0,1,2.83,6.13l-6.11,16.55A4.79,4.79,0,0,1,735.06,97L719,91.06a4.79,4.79,0,0,1-2.83-6.13l6.11-16.55A4.79,4.79,0,0,1,728.37,65.56Z" style="fill-rule:evenodd" fill="#d5dae0" data-color-group="5"/><path d="M759.29,77l16.11,5.94A4.79,4.79,0,0,1,778.23,89l-6.11,16.55a4.79,4.79,0,0,1-6.13,2.83l-16.11-5.94a4.79,4.79,0,0,1-2.83-6.13l6.11-16.55A4.79,4.79,0,0,1,759.29,77Z" style="fill-rule:evenodd" fill="#d5dae0" data-color-group="5"/><path d="M790.22,88.38l9.7,3.58v28a4.74,4.74,0,0,1-3-.1l-16.11-5.94a4.79,4.79,0,0,1-2.83-6.13l6.11-16.55A4.79,4.79,0,0,1,790.22,88.38Z" style="fill-rule:evenodd" fill="#d5dae0" data-color-group="5"/><path d="M458.59,0l5.11,1.88A4.79,4.79,0,0,1,466.52,8l-6.11,16.55a4.79,4.79,0,0,1-6.13,2.83l-16.11-5.94a4.79,4.79,0,0,1-2.83-6.13L441,0h17.59Z" style="fill-rule:evenodd" fill="#d5dae0" data-color-group="5"/><rect x="468.27" y="9.72" width="27.18" height="26.71" rx="4.77" ry="4.77" transform="translate(293.39 467.15) rotate(-69.75)" fill="#d5dae0" data-color-group="5"/><rect x="499.2" y="21.13" width="27.18" height="26.71" rx="4.77" ry="4.77" transform="translate(302.93 503.64) rotate(-69.75)" fill="#d5dae0" data-color-group="5"/><path d="M540.37,30.18l16.11,5.94a4.79,4.79,0,0,1,2.82,6.13L553.19,58.8a4.79,4.79,0,0,1-6.13,2.83L531,55.68a4.79,4.79,0,0,1-2.82-6.13L534.24,33A4.79,4.79,0,0,1,540.37,30.18Z" style="fill-rule:evenodd" fill="#d5dae0" data-color-group="5"/><rect x="561.05" y="43.96" width="27.18" height="26.71" rx="4.77" ry="4.77" transform="translate(321.94 576.58) rotate(-69.75)" fill="#d5dae0" data-color-group="5"/><path d="M602.22,53l16.11,5.94a4.79,4.79,0,0,1,2.83,6.13L615,81.62a4.79,4.79,0,0,1-6.13,2.83L592.81,78.5A4.79,4.79,0,0,1,590,72.37l6.11-16.55A4.79,4.79,0,0,1,602.22,53Z" style="fill-rule:evenodd" fill="#d5dae0" data-color-group="5"/><path d="M633.15,64.41l16.11,5.94a4.79,4.79,0,0,1,2.83,6.13L646,93a4.79,4.79,0,0,1-6.13,2.83l-16.11-5.94a4.79,4.79,0,0,1-2.83-6.13L627,67.24A4.79,4.79,0,0,1,633.15,64.41Z" style="fill-rule:evenodd" fill="#d5dae0" data-color-group="5"/><rect x="653.83" y="78.19" width="27.18" height="26.71" rx="4.77" ry="4.77" transform="translate(350.51 686.02) rotate(-69.75)" fill="#d5dae0" data-color-group="5"/><path d="M695,87.24l16.11,5.94a4.79,4.79,0,0,1,2.82,6.13l-6.11,16.55a4.79,4.79,0,0,1-6.13,2.83l-16.11-5.94a4.79,4.79,0,0,1-2.82-6.13l6.11-16.55A4.79,4.79,0,0,1,695,87.24Z" style="fill-rule:evenodd" fill="#d5dae0" data-color-group="5"/><rect x="715.69" y="101.01" width="27.18" height="26.71" rx="4.77" ry="4.77" transform="translate(369.51 758.96) rotate(-69.75)" fill="#d5dae0" data-color-group="5"/><path d="M756.86,110.06L773,116a4.79,4.79,0,0,1,2.83,6.13l-6.11,16.55a4.79,4.79,0,0,1-6.13,2.83l-16.11-5.94a4.79,4.79,0,0,1-2.83-6.13l6.11-16.55A4.79,4.79,0,0,1,756.86,110.06Z" style="fill-rule:evenodd" fill="#d5dae0" data-color-group="5"/><path d="M452.74,31.83l16.11,5.94a4.79,4.79,0,0,1,2.83,6.13l-6.11,16.55a4.79,4.79,0,0,1-6.13,2.83l-16.11-5.94a4.79,4.79,0,0,1-2.83-6.13l6.11-16.55A4.79,4.79,0,0,1,452.74,31.83Z" style="fill-rule:evenodd" fill="#d5dae0" data-color-group="5"/><rect x="473.42" y="45.61" width="27.18" height="26.71" rx="4.77" ry="4.77" transform="translate(263.1 495.46) rotate(-69.75)" fill="#d5dae0" data-color-group="5"/><path d="M514.59,54.65L530.7,60.6a4.79,4.79,0,0,1,2.83,6.13l-6.11,16.55a4.79,4.79,0,0,1-6.13,2.83l-16.11-5.94A4.79,4.79,0,0,1,502.36,74l6.11-16.55A4.79,4.79,0,0,1,514.59,54.65Z" style="fill-rule:evenodd" fill="#d5dae0" data-color-group="5"/><rect x="535.28" y="68.43" width="27.18" height="26.71" rx="4.77" ry="4.77" transform="translate(282.12 568.4) rotate(-69.75)" fill="#d5dae0" data-color-group="5"/><path d="M576.45,77.48l16.11,5.94a4.79,4.79,0,0,1,2.83,6.13l-6.11,16.55a4.79,4.79,0,0,1-6.13,2.83L567,103a4.79,4.79,0,0,1-2.83-6.13l6.11-16.55A4.79,4.79,0,0,1,576.45,77.48Z" style="fill-rule:evenodd" fill="#d5dae0" data-color-group="5"/><path d="M607.38,88.89l16.11,5.94a4.79,4.79,0,0,1,2.83,6.13l-6.11,16.55a4.79,4.79,0,0,1-6.13,2.83L598,114.39a4.79,4.79,0,0,1-2.83-6.13l6.11-16.55A4.79,4.79,0,0,1,607.38,88.89Z" style="fill-rule:evenodd" fill="#d5dae0" data-color-group="5"/><path d="M638.3,100.3l16.11,5.94a4.79,4.79,0,0,1,2.83,6.13l-6.11,16.55a4.79,4.79,0,0,1-6.13,2.83l-16.11-5.94a4.79,4.79,0,0,1-2.83-6.13l6.11-16.55A4.79,4.79,0,0,1,638.3,100.3Z" style="fill-rule:evenodd" fill="#d5dae0" data-color-group="5"/><path d="M669.23,111.71l16.11,5.94a4.79,4.79,0,0,1,2.83,6.13l-6.11,16.55a4.79,4.79,0,0,1-6.13,2.83l-16.11-5.94a4.79,4.79,0,0,1-2.82-6.13l6.11-16.55A4.79,4.79,0,0,1,669.23,111.71Z" style="fill-rule:evenodd" fill="#d5dae0" data-color-group="5"/><path d="M700.16,123.13l16.11,5.94a4.79,4.79,0,0,1,2.83,6.13L713,151.75a4.79,4.79,0,0,1-6.13,2.83l-16.11-5.94a4.79,4.79,0,0,1-2.83-6.13L694,126A4.79,4.79,0,0,1,700.16,123.13Z" style="fill-rule:evenodd" fill="#d5dae0" data-color-group="5"/><path d="M731.09,134.54l16.11,5.94a4.79,4.79,0,0,1,2.83,6.13l-6.11,16.55a4.79,4.79,0,0,1-6.13,2.83L721.68,160a4.79,4.79,0,0,1-2.83-6.13L725,137.36A4.79,4.79,0,0,1,731.09,134.54Z" style="fill-rule:evenodd" fill="#d5dae0" data-color-group="5"/><rect x="758.36" y="143.72" width="27.18" height="40.76" rx="4.86" ry="4.86" transform="translate(350.77 831.52) rotate(-69.75)" fill="#d5dae0" data-color-group="5"/><path d="M410.27,50.15l16.11,5.94a4.79,4.79,0,0,1,2.83,6.13L423.1,78.77A4.79,4.79,0,0,1,417,81.59l-16.11-5.94A4.79,4.79,0,0,1,398,69.52L404.14,53A4.79,4.79,0,0,1,410.27,50.15Z" style="fill-rule:evenodd" fill="#d5dae0" data-color-group="5"/><rect x="430.95" y="63.92" width="27.18" height="26.71" rx="4.77" ry="4.77" transform="translate(218.15 467.59) rotate(-69.75)" fill="#d5dae0" data-color-group="5"/><path d="M472.13,73l16.11,5.94A4.79,4.79,0,0,1,491.06,85L485,101.59a4.79,4.79,0,0,1-6.13,2.83l-16.11-5.94a4.79,4.79,0,0,1-2.83-6.13L466,75.79A4.79,4.79,0,0,1,472.13,73Z" style="fill-rule:evenodd" fill="#d5dae0" data-color-group="5"/><path d="M503.05,84.38l16.11,5.94A4.79,4.79,0,0,1,522,96.45L515.88,113a4.79,4.79,0,0,1-6.13,2.83l-16.11-5.94a4.79,4.79,0,0,1-2.83-6.13l6.11-16.55A4.79,4.79,0,0,1,503.05,84.38Z" style="fill-rule:evenodd" fill="#d5dae0" data-color-group="5"/><rect x="523.74" y="98.16" width="27.18" height="26.71" rx="4.77" ry="4.77" transform="translate(246.71 577.03) rotate(-69.75)" fill="#d5dae0" data-color-group="5"/><path d="M564.91,107.21L581,113.15a4.79,4.79,0,0,1,2.83,6.13l-6.11,16.55a4.79,4.79,0,0,1-6.13,2.83l-16.11-5.94a4.79,4.79,0,0,1-2.83-6.13L558.78,110A4.79,4.79,0,0,1,564.91,107.21Z" style="fill-rule:evenodd" fill="#d5dae0" data-color-group="5"/><rect x="585.59" y="120.98" width="27.18" height="26.71" rx="4.77" ry="4.77" transform="translate(265.73 649.97) rotate(-69.75)" fill="#d5dae0" data-color-group="5"/><path d="M626.76,130L642.87,136a4.79,4.79,0,0,1,2.82,6.13l-6.11,16.55a4.79,4.79,0,0,1-6.13,2.83l-16.11-5.94a4.79,4.79,0,0,1-2.83-6.13l6.11-16.55A4.79,4.79,0,0,1,626.76,130Z" style="fill-rule:evenodd" fill="#d5dae0" data-color-group="5"/><rect x="647.45" y="143.81" width="27.18" height="26.71" rx="4.77" ry="4.77" transform="translate(284.76 722.93) rotate(-69.75)" fill="#d5dae0" data-color-group="5"/><path d="M688.62,152.85l16.11,5.94a4.79,4.79,0,0,1,2.83,6.13l-6.11,16.55a4.79,4.79,0,0,1-6.13,2.83l-16.11-5.94a4.79,4.79,0,0,1-2.83-6.13l6.11-16.55A4.79,4.79,0,0,1,688.62,152.85Z" style="fill-rule:evenodd" fill="#d5dae0" data-color-group="5"/><path d="M719.62,164.29L748.75,175a4.87,4.87,0,0,1,2.88,6.24l-6,16.39a4.87,4.87,0,0,1-6.24,2.88L710.21,189.8a4.87,4.87,0,0,1-2.87-6.24l6-16.39A4.87,4.87,0,0,1,719.62,164.29Z" style="fill-rule:evenodd" fill="#d5dae0" data-color-group="5"/><path d="M765.15,181.09l15.33,5.65a4.55,4.55,0,0,1,2.69,5.83l-6.27,17a4.55,4.55,0,0,1-5.83,2.69l-15.33-5.65a4.55,4.55,0,0,1-2.69-5.83l6.27-17A4.55,4.55,0,0,1,765.15,181.09Z" style="fill-rule:evenodd" fill="#d5dae0" data-color-group="5"/><path d="M506.11,138.86l160.71,59.3a4.76,4.76,0,0,1,2.81,6.1l-28.51,77.27a4.76,4.76,0,0,1-6.1,2.81L474.31,225a4.76,4.76,0,0,1-2.81-6.1L500,141.67A4.76,4.76,0,0,1,506.11,138.86Z" style="fill-rule:evenodd" fill="#d5dae0" data-color-group="5"/><path d="M468.64,229.52L548.58,259a1,1,0,0,1,.58,1.27l-5.92,16a1,1,0,0,1-1.27.58L462,247.42a1,1,0,0,1-.58-1.27l5.92-16A1,1,0,0,1,468.64,229.52Z" style="fill-rule:evenodd" fill="#d5dae0" data-color-group="5"/><path d="M556.49,261.93l79.93,29.49a1,1,0,0,1,.58,1.27l-5.92,16a1,1,0,0,1-1.27.58l-79.93-29.49a1,1,0,0,1-.58-1.27l5.92-16A1,1,0,0,1,556.49,261.93Z" style="fill-rule:evenodd" fill="#d5dae0" data-color-group="5"/><path d="M460.11,503.12l-1.69,25.31-17.54-18.32L381.24,346h0L379,339.88l-2.81-7.72a5.6,5.6,0,0,1,3.34-7.15l4.37-1.59,4.37-1.59a5.6,5.6,0,0,1,7.15,3.34l5,13.86Z" style="fill-rule:evenodd" fill="#0663d8" data-color-group="4"/><path d="M450.88,497.59L449.2,522.9l-17.54-18.32L367,326.63a5.6,5.6,0,0,1,3.34-7.15l8.74-3.18a5.6,5.6,0,0,1,7.15,3.34Z" style="fill-rule:evenodd" fill="#c62229" data-color-group="3"/><path d="M450.88,497.59L449.2,522.9,441,500.21,374.69,317.88l4.37-1.59a5.6,5.6,0,0,1,7.15,3.34Z" style="fill-rule:evenodd" fill="#c62229" data-color-group="3"/><path d="M450.88,497.59L449.2,522.9l-17.54-18.32L372,340.48a54.91,54.91,0,0,1,19.23-7Z" style="fill-rule:evenodd" fill="#ffd800" data-color-group="2"/><path d="M450.88,497.59L449.2,522.9,441,500.21,381.3,336.09a52.52,52.52,0,0,1,9.94-2.59Z" style="fill-rule:evenodd" fill="#ffd800" data-color-group="2"/><path d="M450.88,497.59L449.2,522.9l-17.54-18.32A56.94,56.94,0,0,1,450.88,497.59Z" style="fill-rule:evenodd" fill="#f0b16c" data-color-group="1"/><path d="M450.88,497.59L449.2,522.9,441,500.21A56.17,56.17,0,0,1,450.88,497.59Z" style="fill-rule:evenodd" fill="#f0b16c" data-color-group="1"/><path d="M449.75,514.54l-0.56,8.36-5.8-6.05A18.79,18.79,0,0,1,449.75,514.54Z" style="fill-rule:evenodd" fill="#1e1e1e" data-color-group="0"/></svg>